<svg width="126" height="176" viewBox="0 0 126 176" fill="none" xmlns="http://www.w3.org/2000/svg">
<path d="M109.875 22.25H75.5C75.5 29.1531 69.9031 34.75 63 34.75C56.0969 34.75 50.5 29.1531 50.5 22.25H16.125C7.53125 22.25 0.5 29.2812 0.5 37.875V159.75C0.5 168.344 7.53125 175.375 16.125 175.375H109.875C118.469 175.375 125.5 168.344 125.5 159.75V37.875C125.5 29.2812 118.469 22.25 109.875 22.25Z" fill="url(#paint0_linear)"/>
<path d="M103.625 159.75H22.375C18.9219 159.75 16.125 156.953 16.125 153.5V44.125C16.125 40.6719 18.9219 37.875 22.375 37.875H103.625C107.078 37.875 109.875 40.6719 109.875 44.125V153.5C109.875 156.953 107.078 159.75 103.625 159.75Z" fill="url(#paint1_linear)"/>
<path d="M103.625 159.75H22.375C18.9219 159.75 16.125 156.953 16.125 153.5V44.125C16.125 40.6719 18.9219 37.875 22.375 37.875H103.625C107.078 37.875 109.875 40.6719 109.875 44.125V153.5C109.875 156.953 107.078 159.75 103.625 159.75Z" fill="url(#paint2_linear)"/>
<path d="M84.875 22.25C84.875 10.1688 75.0812 0.375 63 0.375C50.9188 0.375 41.125 10.1688 41.125 22.25H28.625V41C28.625 46.1781 32.8219 50.375 38 50.375H88C93.1781 50.375 97.375 46.1781 97.375 41V22.25H84.875ZM63 31.625C57.8219 31.625 53.625 27.4281 53.625 22.25C53.625 17.0719 57.8219 12.875 63 12.875C68.1781 12.875 72.375 17.0719 72.375 22.25C72.375 27.4281 68.1781 31.625 63 31.625Z" fill="url(#paint3_linear)"/>
<path d="M40.2734 72.3984C40.2734 73.1536 40.1562 73.8333 39.9219 74.4375C39.6927 75.0417 39.362 75.5547 38.9297 75.9766C38.4974 76.3984 37.9714 76.724 37.3516 76.9531C36.737 77.1771 36.0443 77.2891 35.2734 77.2891C34.4349 77.2891 33.6823 77.1536 33.0156 76.8828C32.349 76.6068 31.7812 76.2135 31.3125 75.7031C30.849 75.1927 30.4922 74.5703 30.2422 73.8359C29.9922 73.1016 29.8672 72.2734 29.8672 71.3516C29.8672 70.4453 29.9922 69.6276 30.2422 68.8984C30.4922 68.1641 30.849 67.5417 31.3125 67.0312C31.776 66.5208 32.3359 66.1276 32.9922 65.8516C33.6536 65.5755 34.3958 65.4375 35.2188 65.4375C35.8854 65.4375 36.5026 65.5312 37.0703 65.7188C37.638 65.901 38.138 66.1615 38.5703 66.5C39.0026 66.8385 39.3568 67.2474 39.6328 67.7266C39.9089 68.2057 40.0885 68.737 40.1719 69.3203H37.8281C37.651 68.7474 37.3359 68.3047 36.8828 67.9922C36.4349 67.6745 35.8802 67.5156 35.2188 67.5156C34.7656 67.5156 34.3568 67.6042 33.9922 67.7812C33.6276 67.9531 33.3177 68.2031 33.0625 68.5312C32.8125 68.8594 32.6198 69.2604 32.4844 69.7344C32.349 70.2031 32.2812 70.7344 32.2812 71.3281C32.2812 71.9323 32.3516 72.474 32.4922 72.9531C32.6328 73.4323 32.8333 73.8411 33.0938 74.1797C33.3594 74.513 33.6797 74.7682 34.0547 74.9453C34.4297 75.1224 34.849 75.2109 35.3125 75.2109C35.6979 75.2109 36.0521 75.1562 36.375 75.0469C36.6979 74.9375 36.974 74.7839 37.2031 74.5859C37.4375 74.388 37.6224 74.1484 37.7578 73.8672C37.8932 73.5859 37.9661 73.276 37.9766 72.9375L37.9844 72.7344H35.5391V70.9609H40.2734V72.3984ZM42.5391 77V65.7266H44.8984V77H42.5391ZM50.6406 77L46.8281 65.7266H49.4922L52.0547 74.3438H52.1953L54.7109 65.7266H57.25L53.4922 77H50.6406ZM66.6484 77H59.1797V65.7266H66.6484V67.7422H61.5391V70.375H66.3594V72.2422H61.5391V74.9844H66.6484V77ZM69.1328 77V65.7266H71.1016L76.2891 72.75H76.4297V65.7266H78.6875V77H76.7344L71.5312 69.9453H71.3906V77H69.1328ZM82.8438 77.2109C82.6354 77.2109 82.4453 77.1771 82.2734 77.1094C82.1068 77.0417 81.9609 76.9479 81.8359 76.8281C81.7161 76.7083 81.6224 76.5651 81.5547 76.3984C81.4922 76.2318 81.4609 76.0495 81.4609 75.8516C81.4609 75.6536 81.4922 75.474 81.5547 75.3125C81.6224 75.1458 81.7161 75.0026 81.8359 74.8828C81.9609 74.763 82.1068 74.6693 82.2734 74.6016C82.4453 74.5339 82.6354 74.5 82.8438 74.5C83.0521 74.5 83.2422 74.5339 83.4141 74.6016C83.5859 74.6693 83.7318 74.763 83.8516 74.8828C83.9714 75.0026 84.0625 75.1458 84.125 75.3125C84.1927 75.474 84.2266 75.6536 84.2266 75.8516C84.2266 76.0495 84.1927 76.2318 84.125 76.3984C84.0625 76.5651 83.9714 76.7083 83.8516 76.8281C83.7318 76.9479 83.5859 77.0417 83.4141 77.1094C83.2422 77.1771 83.0521 77.2109 82.8438 77.2109ZM88.4062 77.2109C88.1979 77.2109 88.0078 77.1771 87.8359 77.1094C87.6693 77.0417 87.5234 76.9479 87.3984 76.8281C87.2786 76.7083 87.1849 76.5651 87.1172 76.3984C87.0547 76.2318 87.0234 76.0495 87.0234 75.8516C87.0234 75.6536 87.0547 75.474 87.1172 75.3125C87.1849 75.1458 87.2786 75.0026 87.3984 74.8828C87.5234 74.763 87.6693 74.6693 87.8359 74.6016C88.0078 74.5339 88.1979 74.5 88.4062 74.5C88.6146 74.5 88.8047 74.5339 88.9766 74.6016C89.1484 74.6693 89.2943 74.763 89.4141 74.8828C89.5339 75.0026 89.625 75.1458 89.6875 75.3125C89.7552 75.474 89.7891 75.6536 89.7891 75.8516C89.7891 76.0495 89.7552 76.2318 89.6875 76.3984C89.625 76.5651 89.5339 76.7083 89.4141 76.8281C89.2943 76.9479 89.1484 77.0417 88.9766 77.1094C88.8047 77.1771 88.6146 77.2109 88.4062 77.2109ZM93.9688 77.2109C93.7604 77.2109 93.5703 77.1771 93.3984 77.1094C93.2318 77.0417 93.0859 76.9479 92.9609 76.8281C92.8411 76.7083 92.7474 76.5651 92.6797 76.3984C92.6172 76.2318 92.5859 76.0495 92.5859 75.8516C92.5859 75.6536 92.6172 75.474 92.6797 75.3125C92.7474 75.1458 92.8411 75.0026 92.9609 74.8828C93.0859 74.763 93.2318 74.6693 93.3984 74.6016C93.5703 74.5339 93.7604 74.5 93.9688 74.5C94.1771 74.5 94.3672 74.5339 94.5391 74.6016C94.7109 74.6693 94.8568 74.763 94.9766 74.8828C95.0964 75.0026 95.1875 75.1458 95.25 75.3125C95.3177 75.474 95.3516 75.6536 95.3516 75.8516C95.3516 76.0495 95.3177 76.2318 95.25 76.3984C95.1875 76.5651 95.0964 76.7083 94.9766 76.8281C94.8568 76.9479 94.7109 77.0417 94.5391 77.1094C94.3672 77.1771 94.1771 77.2109 93.9688 77.2109ZM34.8984 105H32.6719L29.6875 93.7266H32.1406L33.8984 101.672H34.0234L36.0781 93.7266H38.0703L40.1641 101.672H40.2891L42.0312 93.7266H44.4688L41.4766 105H39.2656L37.1328 97.5391H37.0078L34.8984 105ZM53.9609 105V100.289H48.8828V105H46.5234V93.7266H48.8828V98.2734H53.9609V93.7266H56.3203V105H53.9609ZM66.5234 105H59.0547V93.7266H66.5234V95.7422H61.4141V98.375H66.2344V100.242H61.4141V102.984H66.5234V105ZM69.0078 105V93.7266H70.9766L76.1641 100.75H76.3047V93.7266H78.5625V105H76.6094L71.4062 97.9453H71.2656V105H69.0078ZM82.7188 105.211C82.5104 105.211 82.3203 105.177 82.1484 105.109C81.9818 105.042 81.8359 104.948 81.7109 104.828C81.5911 104.708 81.4974 104.565 81.4297 104.398C81.3672 104.232 81.3359 104.049 81.3359 103.852C81.3359 103.654 81.3672 103.474 81.4297 103.312C81.4974 103.146 81.5911 103.003 81.7109 102.883C81.8359 102.763 81.9818 102.669 82.1484 102.602C82.3203 102.534 82.5104 102.5 82.7188 102.5C82.9271 102.5 83.1172 102.534 83.2891 102.602C83.4609 102.669 83.6068 102.763 83.7266 102.883C83.8464 103.003 83.9375 103.146 84 103.312C84.0677 103.474 84.1016 103.654 84.1016 103.852C84.1016 104.049 84.0677 104.232 84 104.398C83.9375 104.565 83.8464 104.708 83.7266 104.828C83.6068 104.948 83.4609 105.042 83.2891 105.109C83.1172 105.177 82.9271 105.211 82.7188 105.211ZM88.2812 105.211C88.0729 105.211 87.8828 105.177 87.7109 105.109C87.5443 105.042 87.3984 104.948 87.2734 104.828C87.1536 104.708 87.0599 104.565 86.9922 104.398C86.9297 104.232 86.8984 104.049 86.8984 103.852C86.8984 103.654 86.9297 103.474 86.9922 103.312C87.0599 103.146 87.1536 103.003 87.2734 102.883C87.3984 102.763 87.5443 102.669 87.7109 102.602C87.8828 102.534 88.0729 102.5 88.2812 102.5C88.4896 102.5 88.6797 102.534 88.8516 102.602C89.0234 102.669 89.1693 102.763 89.2891 102.883C89.4089 103.003 89.5 103.146 89.5625 103.312C89.6302 103.474 89.6641 103.654 89.6641 103.852C89.6641 104.049 89.6302 104.232 89.5625 104.398C89.5 104.565 89.4089 104.708 89.2891 104.828C89.1693 104.948 89.0234 105.042 88.8516 105.109C88.6797 105.177 88.4896 105.211 88.2812 105.211ZM93.8438 105.211C93.6354 105.211 93.4453 105.177 93.2734 105.109C93.1068 105.042 92.9609 104.948 92.8359 104.828C92.7161 104.708 92.6224 104.565 92.5547 104.398C92.4922 104.232 92.4609 104.049 92.4609 103.852C92.4609 103.654 92.4922 103.474 92.5547 103.312C92.6224 103.146 92.7161 103.003 92.8359 102.883C92.9609 102.763 93.1068 102.669 93.2734 102.602C93.4453 102.534 93.6354 102.5 93.8438 102.5C94.0521 102.5 94.2422 102.534 94.4141 102.602C94.5859 102.669 94.7318 102.763 94.8516 102.883C94.9714 103.003 95.0625 103.146 95.125 103.312C95.1927 103.474 95.2266 103.654 95.2266 103.852C95.2266 104.049 95.1927 104.232 95.125 104.398C95.0625 104.565 94.9714 104.708 94.8516 104.828C94.7318 104.948 94.5859 105.042 94.4141 105.109C94.2422 105.177 94.0521 105.211 93.8438 105.211ZM33.1016 133V123.742H29.7188V121.727H38.8438V123.742H35.4609V133H33.1016ZM48.3672 133V128.289H43.2891V133H40.9297V121.727H43.2891V126.273H48.3672V121.727H50.7266V133H48.3672ZM60.9297 133H53.4609V121.727H60.9297V123.742H55.8203V126.375H60.6406V128.242H55.8203V130.984H60.9297V133ZM63.4141 133V121.727H65.3828L70.5703 128.75H70.7109V121.727H72.9688V133H71.0156L65.8125 125.945H65.6719V133H63.4141ZM77.125 133.211C76.9167 133.211 76.7266 133.177 76.5547 133.109C76.388 133.042 76.2422 132.948 76.1172 132.828C75.9974 132.708 75.9036 132.565 75.8359 132.398C75.7734 132.232 75.7422 132.049 75.7422 131.852C75.7422 131.654 75.7734 131.474 75.8359 131.312C75.9036 131.146 75.9974 131.003 76.1172 130.883C76.2422 130.763 76.388 130.669 76.5547 130.602C76.7266 130.534 76.9167 130.5 77.125 130.5C77.3333 130.5 77.5234 130.534 77.6953 130.602C77.8672 130.669 78.013 130.763 78.1328 130.883C78.2526 131.003 78.3438 131.146 78.4062 131.312C78.474 131.474 78.5078 131.654 78.5078 131.852C78.5078 132.049 78.474 132.232 78.4062 132.398C78.3438 132.565 78.2526 132.708 78.1328 132.828C78.013 132.948 77.8672 133.042 77.6953 133.109C77.5234 133.177 77.3333 133.211 77.125 133.211ZM82.6875 133.211C82.4792 133.211 82.2891 133.177 82.1172 133.109C81.9505 133.042 81.8047 132.948 81.6797 132.828C81.5599 132.708 81.4661 132.565 81.3984 132.398C81.3359 132.232 81.3047 132.049 81.3047 131.852C81.3047 131.654 81.3359 131.474 81.3984 131.312C81.4661 131.146 81.5599 131.003 81.6797 130.883C81.8047 130.763 81.9505 130.669 82.1172 130.602C82.2891 130.534 82.4792 130.5 82.6875 130.5C82.8958 130.5 83.0859 130.534 83.2578 130.602C83.4297 130.669 83.5755 130.763 83.6953 130.883C83.8151 131.003 83.9062 131.146 83.9688 131.312C84.0365 131.474 84.0703 131.654 84.0703 131.852C84.0703 132.049 84.0365 132.232 83.9688 132.398C83.9062 132.565 83.8151 132.708 83.6953 132.828C83.5755 132.948 83.4297 133.042 83.2578 133.109C83.0859 133.177 82.8958 133.211 82.6875 133.211ZM88.25 133.211C88.0417 133.211 87.8516 133.177 87.6797 133.109C87.513 133.042 87.3672 132.948 87.2422 132.828C87.1224 132.708 87.0286 132.565 86.9609 132.398C86.8984 132.232 86.8672 132.049 86.8672 131.852C86.8672 131.654 86.8984 131.474 86.9609 131.312C87.0286 131.146 87.1224 131.003 87.2422 130.883C87.3672 130.763 87.513 130.669 87.6797 130.602C87.8516 130.534 88.0417 130.5 88.25 130.5C88.4583 130.5 88.6484 130.534 88.8203 130.602C88.9922 130.669 89.138 130.763 89.2578 130.883C89.3776 131.003 89.4688 131.146 89.5312 131.312C89.599 131.474 89.6328 131.654 89.6328 131.852C89.6328 132.049 89.599 132.232 89.5312 132.398C89.4688 132.565 89.3776 132.708 89.2578 132.828C89.138 132.948 88.9922 133.042 88.8203 133.109C88.6484 133.177 88.4583 133.211 88.25 133.211Z" fill="url(#paint4_linear)"/>
<defs>
<linearGradient id="paint0_linear" x1="63" y1="178.241" x2="63" y2="25.1156" gradientUnits="userSpaceOnUse">
<stop stop-color="#F05138"/>
<stop offset="0.847" stop-color="#F58775"/>
<stop offset="1" stop-color="#F9B9AE"/>
</linearGradient>
<linearGradient id="paint1_linear" x1="63" y1="32.6219" x2="63" y2="171.934" gradientUnits="userSpaceOnUse">
<stop stop-color="#FFCFA2"/>
<stop offset="1" stop-color="#FFD17C"/>
</linearGradient>
<linearGradient id="paint2_linear" x1="63" y1="37.875" x2="63" y2="159.75" gradientUnits="userSpaceOnUse">
<stop stop-color="#FFF1E3"/>
<stop offset="1" stop-color="#FFF1D8"/>
</linearGradient>
<linearGradient id="paint3_linear" x1="63" y1="1.33125" x2="63" y2="66.85" gradientUnits="userSpaceOnUse">
<stop stop-color="#ADADAD"/>
<stop offset="0.412" stop-color="#969696"/>
<stop offset="1" stop-color="#6F6F6F"/>
</linearGradient>
<linearGradient id="paint4_linear" x1="63" y1="142.572" x2="63" y2="58.572" gradientUnits="userSpaceOnUse">
<stop stop-color="#F05138"/>
<stop offset="0.847" stop-color="#F58775"/>
<stop offset="1" stop-color="#F9B9AE"/>
</linearGradient>
</defs>
</svg>
